<mxfile host="drawio-plugin" modified="2022-09-27T10:54:27.154Z" agent="5.0 (Windows NT 6.2; Win64; x64) AppleWebKit/537.36 (KHTML, like Gecko) Chrome/98.0.4758.102 Safari/537.36" etag="ZunUIZmR6L7tq3F2fIil" version="15.5.4" type="embed"><diagram id="M7q_rjLCUN6_J-MULVA2" name="RelationalModel"><mxGraphModel dx="1184" dy="520" grid="1" gridSize="10" guides="1" tooltips="1" connect="1" arrows="1" fold="1" page="1" pageScale="1" pageWidth="850" pageHeight="1100" math="0" shadow="0"><root><mxCell id="0"/><mxCell id="1" parent="0"/><mxCell id="T7bIl6d8-GQxwLn4p8uf-1" value="&lt;font style=&quot;font-size: 18px;&quot;&gt;ShipType&lt;/font&gt;" style="rounded=0;whiteSpace=wrap;html=1;" parent="1" vertex="1"><mxGeometry x="212.5" y="650" width="120" height="60" as="geometry"/></mxCell><mxCell id="T7bIl6d8-GQxwLn4p8uf-2" value="&lt;span style=&quot;font-size: 18px;&quot;&gt;User&lt;/span&gt;" style="rounded=0;whiteSpace=wrap;html=1;" parent="1" vertex="1"><mxGeometry x="212.5" y="460" width="120" height="60" as="geometry"/></mxCell><mxCell id="T7bIl6d8-GQxwLn4p8uf-3" value="&lt;font style=&quot;font-size: 14px;&quot;&gt;&lt;u&gt;username&lt;/u&gt;&lt;/font&gt;" style="ellipse;whiteSpace=wrap;html=1;fontSize=18;" parent="1" vertex="1"><mxGeometry x="157.5" y="380" width="90" height="30" as="geometry"/></mxCell><mxCell id="T7bIl6d8-GQxwLn4p8uf-5" value="&lt;span style=&quot;font-size: 14px;&quot;&gt;hashed_password&lt;/span&gt;" style="ellipse;whiteSpace=wrap;html=1;fontSize=18;" parent="1" vertex="1"><mxGeometry x="270" y="380" width="140" height="30" as="geometry"/></mxCell><mxCell id="T7bIl6d8-GQxwLn4p8uf-6" value="&lt;span style=&quot;font-size: 18px;&quot;&gt;Player&lt;/span&gt;" style="rounded=0;whiteSpace=wrap;html=1;" parent="1" vertex="1"><mxGeometry x="-57.5" y="460" width="120" height="60" as="geometry"/></mxCell><mxCell id="T7bIl6d8-GQxwLn4p8uf-7" value="&lt;span style=&quot;font-size: 14px;&quot;&gt;points&lt;/span&gt;" style="ellipse;whiteSpace=wrap;html=1;fontSize=18;" parent="1" vertex="1"><mxGeometry x="352.5" y="470" width="80" height="30" as="geometry"/></mxCell><mxCell id="T7bIl6d8-GQxwLn4p8uf-8" value="" style="endArrow=none;html=1;rounded=0;fontSize=14;" parent="1" source="T7bIl6d8-GQxwLn4p8uf-2" target="T7bIl6d8-GQxwLn4p8uf-3" edge="1"><mxGeometry width="50" height="50" relative="1" as="geometry"><mxPoint x="292.5" y="480" as="sourcePoint"/><mxPoint x="342.5" y="430" as="targetPoint"/></mxGeometry></mxCell><mxCell id="T7bIl6d8-GQxwLn4p8uf-9" value="" style="endArrow=none;html=1;rounded=0;fontSize=14;" parent="1" source="T7bIl6d8-GQxwLn4p8uf-2" target="T7bIl6d8-GQxwLn4p8uf-5" edge="1"><mxGeometry width="50" height="50" relative="1" as="geometry"><mxPoint x="222.5" y="498.3609448165239" as="sourcePoint"/><mxPoint x="142.36248274436048" y="496.17178126571093" as="targetPoint"/></mxGeometry></mxCell><mxCell id="T7bIl6d8-GQxwLn4p8uf-10" value="" style="endArrow=none;html=1;rounded=0;fontSize=14;" parent="1" source="T7bIl6d8-GQxwLn4p8uf-2" target="T7bIl6d8-GQxwLn4p8uf-7" edge="1"><mxGeometry width="50" height="50" relative="1" as="geometry"><mxPoint x="291.9844601409475" y="530.0000000000001" as="sourcePoint"/><mxPoint x="307.80258338324506" y="580.0338121745247" as="targetPoint"/></mxGeometry></mxCell><mxCell id="T7bIl6d8-GQxwLn4p8uf-11" value="Has" style="rhombus;whiteSpace=wrap;html=1;fontSize=14;" parent="1" vertex="1"><mxGeometry x="112.5" y="465" width="50" height="50" as="geometry"/></mxCell><mxCell id="T7bIl6d8-GQxwLn4p8uf-13" value="" style="endArrow=none;html=1;rounded=0;fontSize=14;" parent="1" source="T7bIl6d8-GQxwLn4p8uf-2" target="T7bIl6d8-GQxwLn4p8uf-11" edge="1"><mxGeometry width="50" height="50" relative="1" as="geometry"><mxPoint x="282.5" y="530.0000000000001" as="sourcePoint"/><mxPoint x="282.5" y="590" as="targetPoint"/></mxGeometry></mxCell><mxCell id="T7bIl6d8-GQxwLn4p8uf-14" value="" style="endArrow=none;html=1;rounded=0;fontSize=14;exitX=0;exitY=0.5;exitDx=0;exitDy=0;" parent="1" source="T7bIl6d8-GQxwLn4p8uf-11" target="T7bIl6d8-GQxwLn4p8uf-6" edge="1"><mxGeometry width="50" height="50" relative="1" as="geometry"><mxPoint x="222.5" y="500.0000000000001" as="sourcePoint"/><mxPoint x="172.5" y="500.0000000000001" as="targetPoint"/></mxGeometry></mxCell><mxCell id="T7bIl6d8-GQxwLn4p8uf-15" value="&lt;span style=&quot;font-size: 14px;&quot;&gt;points&lt;/span&gt;" style="ellipse;whiteSpace=wrap;html=1;fontSize=18;" parent="1" vertex="1"><mxGeometry x="-157.5" y="560" width="70" height="30" as="geometry"/></mxCell><mxCell id="T7bIl6d8-GQxwLn4p8uf-16" value="" style="endArrow=none;html=1;rounded=0;fontSize=14;" parent="1" source="T7bIl6d8-GQxwLn4p8uf-15" target="T7bIl6d8-GQxwLn4p8uf-6" edge="1"><mxGeometry width="50" height="50" relative="1" as="geometry"><mxPoint x="122.5" y="500.0000000000001" as="sourcePoint"/><mxPoint x="72.5" y="500.0000000000001" as="targetPoint"/></mxGeometry></mxCell><mxCell id="T7bIl6d8-GQxwLn4p8uf-17" value="&lt;span style=&quot;font-size: 18px;&quot;&gt;Game&lt;/span&gt;" style="rounded=0;whiteSpace=wrap;html=1;" parent="1" vertex="1"><mxGeometry x="-57.5" y="240" width="120" height="60" as="geometry"/></mxCell><mxCell id="T7bIl6d8-GQxwLn4p8uf-18" value="N" style="text;html=1;strokeColor=none;fillColor=none;align=center;verticalAlign=middle;whiteSpace=wrap;rounded=0;fontSize=14;" parent="1" vertex="1"><mxGeometry x="92.5" y="465" width="20" height="30" as="geometry"/></mxCell><mxCell id="T7bIl6d8-GQxwLn4p8uf-19" value="1" style="text;html=1;strokeColor=none;fillColor=none;align=center;verticalAlign=middle;whiteSpace=wrap;rounded=0;fontSize=14;" parent="1" vertex="1"><mxGeometry x="162.5" y="465" width="20" height="30" as="geometry"/></mxCell><mxCell id="T7bIl6d8-GQxwLn4p8uf-20" value="Has" style="rhombus;whiteSpace=wrap;html=1;fontSize=14;" parent="1" vertex="1"><mxGeometry x="-22.5" y="350" width="50" height="50" as="geometry"/></mxCell><mxCell id="T7bIl6d8-GQxwLn4p8uf-21" value="" style="endArrow=none;html=1;rounded=0;fontSize=14;" parent="1" source="T7bIl6d8-GQxwLn4p8uf-20" target="T7bIl6d8-GQxwLn4p8uf-17" edge="1"><mxGeometry width="50" height="50" relative="1" as="geometry"><mxPoint x="132.5" y="470.0000000000001" as="sourcePoint"/><mxPoint x="82.5" y="470.0000000000001" as="targetPoint"/></mxGeometry></mxCell><mxCell id="T7bIl6d8-GQxwLn4p8uf-22" value="" style="endArrow=none;html=1;rounded=0;fontSize=14;" parent="1" source="T7bIl6d8-GQxwLn4p8uf-20" target="T7bIl6d8-GQxwLn4p8uf-6" edge="1"><mxGeometry width="50" height="50" relative="1" as="geometry"><mxPoint x="222.5" y="500.0000000000001" as="sourcePoint"/><mxPoint x="172.5" y="500.0000000000001" as="targetPoint"/></mxGeometry></mxCell><mxCell id="T7bIl6d8-GQxwLn4p8uf-23" value="1" style="text;html=1;strokeColor=none;fillColor=none;align=center;verticalAlign=middle;whiteSpace=wrap;rounded=0;fontSize=14;" parent="1" vertex="1"><mxGeometry x="2.5" y="330" width="20" height="30" as="geometry"/></mxCell><mxCell id="T7bIl6d8-GQxwLn4p8uf-24" value="2" style="text;html=1;strokeColor=none;fillColor=none;align=center;verticalAlign=middle;whiteSpace=wrap;rounded=0;fontSize=14;" parent="1" vertex="1"><mxGeometry x="2.5" y="390" width="20" height="30" as="geometry"/></mxCell><mxCell id="T7bIl6d8-GQxwLn4p8uf-25" value="&lt;font style=&quot;font-size: 14px;&quot;&gt;&lt;u&gt;id&lt;/u&gt;&lt;/font&gt;" style="ellipse;whiteSpace=wrap;html=1;fontSize=18;" parent="1" vertex="1"><mxGeometry x="-107.5" y="150" width="90" height="30" as="geometry"/></mxCell><mxCell id="T7bIl6d8-GQxwLn4p8uf-26" value="" style="endArrow=none;html=1;rounded=0;fontSize=14;" parent="1" source="T7bIl6d8-GQxwLn4p8uf-17" target="T7bIl6d8-GQxwLn4p8uf-25" edge="1"><mxGeometry width="50" height="50" relative="1" as="geometry"><mxPoint x="12.5" y="360" as="sourcePoint"/><mxPoint x="12.5" y="310" as="targetPoint"/></mxGeometry></mxCell><mxCell id="T7bIl6d8-GQxwLn4p8uf-27" value="&lt;font style=&quot;font-size: 18px;&quot;&gt;Ship&lt;/font&gt;" style="rounded=0;whiteSpace=wrap;html=1;" parent="1" vertex="1"><mxGeometry x="-57.5" y="650" width="120" height="60" as="geometry"/></mxCell><mxCell id="T7bIl6d8-GQxwLn4p8uf-28" value="Has" style="rhombus;whiteSpace=wrap;html=1;fontSize=14;" parent="1" vertex="1"><mxGeometry x="-22.5" y="560" width="50" height="50" as="geometry"/></mxCell><mxCell id="T7bIl6d8-GQxwLn4p8uf-29" value="" style="endArrow=none;html=1;rounded=0;fontSize=14;" parent="1" source="T7bIl6d8-GQxwLn4p8uf-28" target="T7bIl6d8-GQxwLn4p8uf-6" edge="1"><mxGeometry width="50" height="50" relative="1" as="geometry"><mxPoint x="12.5" y="360" as="sourcePoint"/><mxPoint x="12.5" y="310" as="targetPoint"/></mxGeometry></mxCell><mxCell id="T7bIl6d8-GQxwLn4p8uf-30" value="" style="endArrow=none;html=1;rounded=0;fontSize=14;" parent="1" source="T7bIl6d8-GQxwLn4p8uf-27" target="T7bIl6d8-GQxwLn4p8uf-28" edge="1"><mxGeometry width="50" height="50" relative="1" as="geometry"><mxPoint x="12.5" y="410.0000000000001" as="sourcePoint"/><mxPoint x="12.5" y="470.0000000000001" as="targetPoint"/></mxGeometry></mxCell><mxCell id="T7bIl6d8-GQxwLn4p8uf-31" value="1" style="text;html=1;strokeColor=none;fillColor=none;align=center;verticalAlign=middle;whiteSpace=wrap;rounded=0;fontSize=14;" parent="1" vertex="1"><mxGeometry x="2.5" y="540" width="20" height="30" as="geometry"/></mxCell><mxCell id="T7bIl6d8-GQxwLn4p8uf-32" value="N" style="text;html=1;strokeColor=none;fillColor=none;align=center;verticalAlign=middle;whiteSpace=wrap;rounded=0;fontSize=14;" parent="1" vertex="1"><mxGeometry x="2.5" y="600" width="20" height="30" as="geometry"/></mxCell><mxCell id="T7bIl6d8-GQxwLn4p8uf-33" value="Has" style="rhombus;whiteSpace=wrap;html=1;fontSize=14;" parent="1" vertex="1"><mxGeometry x="112.5" y="655" width="50" height="50" as="geometry"/></mxCell><mxCell id="T7bIl6d8-GQxwLn4p8uf-36" value="" style="endArrow=none;html=1;rounded=0;fontSize=14;" parent="1" source="T7bIl6d8-GQxwLn4p8uf-33" target="T7bIl6d8-GQxwLn4p8uf-27" edge="1"><mxGeometry width="50" height="50" relative="1" as="geometry"><mxPoint x="12.5" y="660" as="sourcePoint"/><mxPoint x="12.5" y="620" as="targetPoint"/></mxGeometry></mxCell><mxCell id="T7bIl6d8-GQxwLn4p8uf-37" value="" style="endArrow=none;html=1;rounded=0;fontSize=14;" parent="1" source="T7bIl6d8-GQxwLn4p8uf-1" target="T7bIl6d8-GQxwLn4p8uf-33" edge="1"><mxGeometry width="50" height="50" relative="1" as="geometry"><mxPoint x="122.5" y="690" as="sourcePoint"/><mxPoint x="72.5" y="690" as="targetPoint"/></mxGeometry></mxCell><mxCell id="T7bIl6d8-GQxwLn4p8uf-38" value="&lt;span style=&quot;font-size: 14px;&quot;&gt;orientation&lt;/span&gt;" style="ellipse;whiteSpace=wrap;html=1;fontSize=18;" parent="1" vertex="1"><mxGeometry x="-157.5" y="770" width="90" height="30" as="geometry"/></mxCell><mxCell id="T7bIl6d8-GQxwLn4p8uf-39" value="&lt;span style=&quot;font-size: 14px;&quot;&gt;coordinate&lt;/span&gt;" style="ellipse;whiteSpace=wrap;html=1;fontSize=18;" parent="1" vertex="1"><mxGeometry x="-47.5" y="770" width="100" height="30" as="geometry"/></mxCell><mxCell id="T7bIl6d8-GQxwLn4p8uf-40" value="" style="endArrow=none;html=1;rounded=0;fontSize=14;" parent="1" source="T7bIl6d8-GQxwLn4p8uf-27" target="T7bIl6d8-GQxwLn4p8uf-39" edge="1"><mxGeometry width="50" height="50" relative="1" as="geometry"><mxPoint x="282.5" y="530.0000000000001" as="sourcePoint"/><mxPoint x="282.5" y="600" as="targetPoint"/></mxGeometry></mxCell><mxCell id="T7bIl6d8-GQxwLn4p8uf-41" value="" style="endArrow=none;html=1;rounded=0;fontSize=14;" parent="1" source="T7bIl6d8-GQxwLn4p8uf-27" target="T7bIl6d8-GQxwLn4p8uf-38" edge="1"><mxGeometry width="50" height="50" relative="1" as="geometry"><mxPoint x="1.696395835717567" y="720" as="sourcePoint"/><mxPoint x="-27.12913886048841" y="800.0442174422835" as="targetPoint"/></mxGeometry></mxCell><mxCell id="T7bIl6d8-GQxwLn4p8uf-42" value="&lt;span style=&quot;font-size: 14px;&quot;&gt;row&lt;/span&gt;" style="ellipse;whiteSpace=wrap;html=1;fontSize=18;" parent="1" vertex="1"><mxGeometry x="-77.5" y="830" width="70" height="30" as="geometry"/></mxCell><mxCell id="T7bIl6d8-GQxwLn4p8uf-43" value="&lt;span style=&quot;font-size: 14px;&quot;&gt;col&lt;/span&gt;" style="ellipse;whiteSpace=wrap;html=1;fontSize=18;" parent="1" vertex="1"><mxGeometry x="12.5" y="830" width="70" height="30" as="geometry"/></mxCell><mxCell id="T7bIl6d8-GQxwLn4p8uf-44" value="" style="endArrow=none;html=1;rounded=0;fontSize=14;" parent="1" source="T7bIl6d8-GQxwLn4p8uf-39" target="T7bIl6d8-GQxwLn4p8uf-42" edge="1"><mxGeometry width="50" height="50" relative="1" as="geometry"><mxPoint x="12.5" y="720" as="sourcePoint"/><mxPoint x="12.5" y="780" as="targetPoint"/></mxGeometry></mxCell><mxCell id="T7bIl6d8-GQxwLn4p8uf-45" value="" style="endArrow=none;html=1;rounded=0;fontSize=14;" parent="1" source="T7bIl6d8-GQxwLn4p8uf-39" target="T7bIl6d8-GQxwLn4p8uf-43" edge="1"><mxGeometry width="50" height="50" relative="1" as="geometry"><mxPoint x="5.110331175206284" y="809.9161833685655" as="sourcePoint"/><mxPoint x="-25.166481894403887" y="870.3329637888082" as="targetPoint"/></mxGeometry></mxCell><mxCell id="T7bIl6d8-GQxwLn4p8uf-46" value="&lt;span style=&quot;font-size: 14px;&quot;&gt;size&lt;/span&gt;" style="ellipse;whiteSpace=wrap;html=1;fontSize=18;" parent="1" vertex="1"><mxGeometry x="180" y="750" width="90" height="30" as="geometry"/></mxCell><mxCell id="T7bIl6d8-GQxwLn4p8uf-47" value="&lt;span style=&quot;font-size: 14px;&quot;&gt;&lt;u&gt;ship_name&lt;/u&gt;&lt;/span&gt;" style="ellipse;whiteSpace=wrap;html=1;fontSize=18;" parent="1" vertex="1"><mxGeometry x="227.5" y="580" width="90" height="30" as="geometry"/></mxCell><mxCell id="T7bIl6d8-GQxwLn4p8uf-48" value="&lt;span style=&quot;font-size: 14px;&quot;&gt;points&lt;/span&gt;" style="ellipse;whiteSpace=wrap;html=1;fontSize=18;" parent="1" vertex="1"><mxGeometry x="290" y="750" width="90" height="30" as="geometry"/></mxCell><mxCell id="T7bIl6d8-GQxwLn4p8uf-49" value="" style="endArrow=none;html=1;rounded=0;fontSize=14;" parent="1" source="T7bIl6d8-GQxwLn4p8uf-1" target="T7bIl6d8-GQxwLn4p8uf-46" edge="1"><mxGeometry width="50" height="50" relative="1" as="geometry"><mxPoint x="282.5" y="530.0000000000001" as="sourcePoint"/><mxPoint x="282.5" y="600" as="targetPoint"/></mxGeometry></mxCell><mxCell id="T7bIl6d8-GQxwLn4p8uf-51" value="" style="endArrow=none;html=1;rounded=0;fontSize=14;" parent="1" source="T7bIl6d8-GQxwLn4p8uf-1" target="T7bIl6d8-GQxwLn4p8uf-48" edge="1"><mxGeometry width="50" height="50" relative="1" as="geometry"><mxPoint x="292.5" y="720" as="sourcePoint"/><mxPoint x="292.5" y="760" as="targetPoint"/></mxGeometry></mxCell><mxCell id="T7bIl6d8-GQxwLn4p8uf-52" value="" style="endArrow=none;html=1;rounded=0;fontSize=14;" parent="1" source="T7bIl6d8-GQxwLn4p8uf-1" target="T7bIl6d8-GQxwLn4p8uf-47" edge="1"><mxGeometry width="50" height="50" relative="1" as="geometry"><mxPoint x="292.5" y="720" as="sourcePoint"/><mxPoint x="292.5" y="760" as="targetPoint"/></mxGeometry></mxCell><mxCell id="T7bIl6d8-GQxwLn4p8uf-53" value="&lt;span style=&quot;font-size: 14px;&quot;&gt;lives&lt;/span&gt;" style="ellipse;whiteSpace=wrap;html=1;fontSize=18;" parent="1" vertex="1"><mxGeometry x="82.5" y="770" width="90" height="30" as="geometry"/></mxCell><mxCell id="T7bIl6d8-GQxwLn4p8uf-54" value="" style="endArrow=none;html=1;rounded=0;fontSize=14;" parent="1" source="T7bIl6d8-GQxwLn4p8uf-27" target="T7bIl6d8-GQxwLn4p8uf-53" edge="1"><mxGeometry width="50" height="50" relative="1" as="geometry"><mxPoint x="-47.5" y="690" as="sourcePoint"/><mxPoint x="-107.5" y="690" as="targetPoint"/></mxGeometry></mxCell><mxCell id="T7bIl6d8-GQxwLn4p8uf-55" value="&lt;span style=&quot;font-size: 18px;&quot;&gt;Shot&lt;/span&gt;" style="rounded=0;whiteSpace=wrap;html=1;" parent="1" vertex="1"><mxGeometry x="-427.5" y="460" width="120" height="60" as="geometry"/></mxCell><mxCell id="T7bIl6d8-GQxwLn4p8uf-56" value="Made By" style="rhombus;whiteSpace=wrap;html=1;fontSize=14;" parent="1" vertex="1"><mxGeometry x="-227.5" y="450" width="80" height="80" as="geometry"/></mxCell><mxCell id="T7bIl6d8-GQxwLn4p8uf-57" value="&lt;span style=&quot;font-size: 14px;&quot;&gt;result&lt;/span&gt;" style="ellipse;whiteSpace=wrap;html=1;fontSize=18;" parent="1" vertex="1"><mxGeometry x="-537.5" y="475" width="70" height="30" as="geometry"/></mxCell><mxCell id="T7bIl6d8-GQxwLn4p8uf-58" value="" style="endArrow=none;html=1;rounded=0;fontSize=14;" parent="1" source="T7bIl6d8-GQxwLn4p8uf-57" target="T7bIl6d8-GQxwLn4p8uf-55" edge="1"><mxGeometry width="50" height="50" relative="1" as="geometry"><mxPoint x="-93.8464354157536" y="572.3078838911315" as="sourcePoint"/><mxPoint x="-31.617647058823422" y="530" as="targetPoint"/></mxGeometry></mxCell><mxCell id="T7bIl6d8-GQxwLn4p8uf-59" value="" style="endArrow=none;html=1;rounded=0;fontSize=14;" parent="1" source="T7bIl6d8-GQxwLn4p8uf-56" target="T7bIl6d8-GQxwLn4p8uf-55" edge="1"><mxGeometry width="50" height="50" relative="1" as="geometry"><mxPoint x="122.5" y="500" as="sourcePoint"/><mxPoint x="72.5" y="500" as="targetPoint"/></mxGeometry></mxCell><mxCell id="T7bIl6d8-GQxwLn4p8uf-60" value="" style="endArrow=none;html=1;rounded=0;fontSize=14;" parent="1" source="T7bIl6d8-GQxwLn4p8uf-6" target="T7bIl6d8-GQxwLn4p8uf-56" edge="1"><mxGeometry width="50" height="50" relative="1" as="geometry"><mxPoint x="-217.5" y="500" as="sourcePoint"/><mxPoint x="-187.5" y="490" as="targetPoint"/></mxGeometry></mxCell><mxCell id="T7bIl6d8-GQxwLn4p8uf-61" value="1" style="text;html=1;strokeColor=none;fillColor=none;align=center;verticalAlign=middle;whiteSpace=wrap;rounded=0;fontSize=14;" parent="1" vertex="1"><mxGeometry x="-157.5" y="465" width="20" height="30" as="geometry"/></mxCell><mxCell id="T7bIl6d8-GQxwLn4p8uf-62" value="N" style="text;html=1;strokeColor=none;fillColor=none;align=center;verticalAlign=middle;whiteSpace=wrap;rounded=0;fontSize=14;" parent="1" vertex="1"><mxGeometry x="-237.5" y="465" width="20" height="30" as="geometry"/></mxCell><mxCell id="T7bIl6d8-GQxwLn4p8uf-63" value="&lt;span style=&quot;font-size: 14px;&quot;&gt;coordinate&lt;/span&gt;" style="ellipse;whiteSpace=wrap;html=1;fontSize=18;" parent="1" vertex="1"><mxGeometry x="-417.5" y="560" width="100" height="30" as="geometry"/></mxCell><mxCell id="T7bIl6d8-GQxwLn4p8uf-64" value="&lt;span style=&quot;font-size: 14px;&quot;&gt;row&lt;/span&gt;" style="ellipse;whiteSpace=wrap;html=1;fontSize=18;" parent="1" vertex="1"><mxGeometry x="-447.5" y="620" width="70" height="30" as="geometry"/></mxCell><mxCell id="T7bIl6d8-GQxwLn4p8uf-65" value="&lt;span style=&quot;font-size: 14px;&quot;&gt;col&lt;/span&gt;" style="ellipse;whiteSpace=wrap;html=1;fontSize=18;" parent="1" vertex="1"><mxGeometry x="-357.5" y="620" width="70" height="30" as="geometry"/></mxCell><mxCell id="T7bIl6d8-GQxwLn4p8uf-66" value="" style="endArrow=none;html=1;rounded=0;fontSize=14;" parent="1" source="T7bIl6d8-GQxwLn4p8uf-63" target="T7bIl6d8-GQxwLn4p8uf-64" edge="1"><mxGeometry width="50" height="50" relative="1" as="geometry"><mxPoint x="-347.5" y="550" as="sourcePoint"/><mxPoint x="-347.5" y="610" as="targetPoint"/></mxGeometry></mxCell><mxCell id="T7bIl6d8-GQxwLn4p8uf-67" value="" style="endArrow=none;html=1;rounded=0;fontSize=14;" parent="1" source="T7bIl6d8-GQxwLn4p8uf-63" target="T7bIl6d8-GQxwLn4p8uf-65" edge="1"><mxGeometry width="50" height="50" relative="1" as="geometry"><mxPoint x="-354.8896688247937" y="639.9161833685655" as="sourcePoint"/><mxPoint x="-385.1664818944039" y="700.3329637888082" as="targetPoint"/></mxGeometry></mxCell><mxCell id="T7bIl6d8-GQxwLn4p8uf-68" value="" style="endArrow=none;html=1;rounded=0;fontSize=14;" parent="1" source="T7bIl6d8-GQxwLn4p8uf-63" target="T7bIl6d8-GQxwLn4p8uf-55" edge="1"><mxGeometry width="50" height="50" relative="1" as="geometry"><mxPoint x="-457.5" y="500" as="sourcePoint"/><mxPoint x="-417.5" y="500" as="targetPoint"/></mxGeometry></mxCell><mxCell id="T7bIl6d8-GQxwLn4p8uf-69" value="1" style="text;html=1;strokeColor=none;fillColor=none;align=center;verticalAlign=middle;whiteSpace=wrap;rounded=0;fontSize=14;" parent="1" vertex="1"><mxGeometry x="152.5" y="650" width="20" height="30" as="geometry"/></mxCell><mxCell id="T7bIl6d8-GQxwLn4p8uf-70" value="N" style="text;html=1;strokeColor=none;fillColor=none;align=center;verticalAlign=middle;whiteSpace=wrap;rounded=0;fontSize=14;" parent="1" vertex="1"><mxGeometry x="102.5" y="650" width="20" height="30" as="geometry"/></mxCell><mxCell id="T7bIl6d8-GQxwLn4p8uf-71" value="&lt;font style=&quot;font-size: 14px;&quot;&gt;&lt;u&gt;id&lt;/u&gt;&lt;/font&gt;" style="ellipse;whiteSpace=wrap;html=1;fontSize=18;" parent="1" vertex="1"><mxGeometry x="-207.5" y="665" width="90" height="30" as="geometry"/></mxCell><mxCell id="T7bIl6d8-GQxwLn4p8uf-72" value="" style="endArrow=none;html=1;rounded=0;fontSize=14;" parent="1" source="T7bIl6d8-GQxwLn4p8uf-27" target="T7bIl6d8-GQxwLn4p8uf-71" edge="1"><mxGeometry width="50" height="50" relative="1" as="geometry"><mxPoint x="-20.357142857142662" y="720" as="sourcePoint"/><mxPoint x="-87.06770117440783" y="780.9096402027203" as="targetPoint"/></mxGeometry></mxCell><mxCell id="T7bIl6d8-GQxwLn4p8uf-74" value="&lt;font style=&quot;font-size: 14px;&quot;&gt;&lt;u&gt;round&lt;/u&gt;&lt;/font&gt;" style="ellipse;whiteSpace=wrap;html=1;fontSize=18;" parent="1" vertex="1"><mxGeometry x="-412.5" y="370" width="90" height="30" as="geometry"/></mxCell><mxCell id="T7bIl6d8-GQxwLn4p8uf-75" value="" style="endArrow=none;html=1;rounded=0;fontSize=14;" parent="1" source="T7bIl6d8-GQxwLn4p8uf-55" target="T7bIl6d8-GQxwLn4p8uf-74" edge="1"><mxGeometry width="50" height="50" relative="1" as="geometry"><mxPoint x="-457.5" y="500" as="sourcePoint"/><mxPoint x="-417.5" y="500" as="targetPoint"/></mxGeometry></mxCell><mxCell id="T7bIl6d8-GQxwLn4p8uf-76" value="" style="rounded=0;whiteSpace=wrap;html=1;fillColor=none;" parent="1" vertex="1"><mxGeometry x="-422.5" y="465" width="110" height="50" as="geometry"/></mxCell><mxCell id="T7bIl6d8-GQxwLn4p8uf-77" value="" style="rounded=0;whiteSpace=wrap;html=1;fillColor=none;" parent="1" vertex="1"><mxGeometry x="-52.5" y="465" width="110" height="50" as="geometry"/></mxCell><mxCell id="T7bIl6d8-GQxwLn4p8uf-86" value="" style="rhombus;whiteSpace=wrap;html=1;fontSize=14;fillColor=none;" parent="1" vertex="1"><mxGeometry x="117.5" y="470" width="40" height="40" as="geometry"/></mxCell><mxCell id="T7bIl6d8-GQxwLn4p8uf-87" value="" style="rhombus;whiteSpace=wrap;html=1;fontSize=14;fillColor=none;" parent="1" vertex="1"><mxGeometry x="-17.5" y="355" width="40" height="40" as="geometry"/></mxCell><mxCell id="T7bIl6d8-GQxwLn4p8uf-89" value="" style="rhombus;whiteSpace=wrap;html=1;fontSize=14;fillColor=none;" parent="1" vertex="1"><mxGeometry x="-222.5" y="455" width="70" height="70" as="geometry"/></mxCell><mxCell id="2" value="&lt;font style=&quot;font-size: 14px&quot;&gt;&lt;u&gt;number&lt;/u&gt;&lt;/font&gt;" style="ellipse;whiteSpace=wrap;html=1;fontSize=18;" parent="1" vertex="1"><mxGeometry x="-537.5" y="390" width="90" height="30" as="geometry"/></mxCell><mxCell id="3" value="" style="endArrow=none;html=1;rounded=0;fontSize=14;" parent="1" source="T7bIl6d8-GQxwLn4p8uf-76" target="2" edge="1"><mxGeometry width="50" height="50" relative="1" as="geometry"><mxPoint x="-357.5" y="470" as="sourcePoint"/><mxPoint x="-357.5" y="410" as="targetPoint"/></mxGeometry></mxCell><mxCell id="7" value="Has" style="rhombus;whiteSpace=wrap;html=1;fontSize=14;" parent="1" vertex="1"><mxGeometry x="112.5" y="245" width="50" height="50" as="geometry"/></mxCell><mxCell id="11" value="" style="endArrow=none;html=1;rounded=0;fontSize=14;entryX=1;entryY=0.5;entryDx=0;entryDy=0;exitX=0;exitY=0.5;exitDx=0;exitDy=0;" parent="1" source="7" target="T7bIl6d8-GQxwLn4p8uf-17" edge="1"><mxGeometry width="50" height="50" relative="1" as="geometry"><mxPoint x="12.5" y="359.9999999999999" as="sourcePoint"/><mxPoint x="12.5" y="309.9999999999999" as="targetPoint"/></mxGeometry></mxCell><mxCell id="12" value="" style="endArrow=none;html=1;rounded=0;fontSize=14;exitX=1;exitY=0.5;exitDx=0;exitDy=0;entryX=0;entryY=0.5;entryDx=0;entryDy=0;" parent="1" source="7" target="20" edge="1"><mxGeometry width="50" height="50" relative="1" as="geometry"><mxPoint x="147.5" y="279.9999999999999" as="sourcePoint"/><mxPoint x="220" y="300" as="targetPoint"/></mxGeometry></mxCell><mxCell id="6" value="" style="rhombus;whiteSpace=wrap;html=1;fontSize=14;fillColor=none;" parent="1" vertex="1"><mxGeometry x="117.5" y="250" width="40" height="40" as="geometry"/></mxCell><mxCell id="13" value="1" style="text;html=1;strokeColor=none;fillColor=none;align=center;verticalAlign=middle;whiteSpace=wrap;rounded=0;fontSize=14;" parent="1" vertex="1"><mxGeometry x="97.5" y="245" width="20" height="30" as="geometry"/></mxCell><mxCell id="14" value="1" style="text;html=1;strokeColor=none;fillColor=none;align=center;verticalAlign=middle;whiteSpace=wrap;rounded=0;fontSize=14;" parent="1" vertex="1"><mxGeometry x="157.5" y="245" width="20" height="30" as="geometry"/></mxCell><mxCell id="16" value="&lt;span style=&quot;font-size: 14px&quot;&gt;name&lt;/span&gt;" style="ellipse;whiteSpace=wrap;html=1;fontSize=18;" parent="1" vertex="1"><mxGeometry x="42.5" y="150" width="90" height="30" as="geometry"/></mxCell><mxCell id="17" value="" style="endArrow=none;html=1;rounded=0;fontSize=14;" parent="1" source="T7bIl6d8-GQxwLn4p8uf-17" target="16" edge="1"><mxGeometry width="50" height="50" relative="1" as="geometry"><mxPoint x="12.5" y="249.9999999999999" as="sourcePoint"/><mxPoint x="12.5" y="189.9999999999999" as="targetPoint"/></mxGeometry></mxCell><mxCell id="19" value="&lt;span style=&quot;font-size: 18px&quot;&gt;GameConfig&lt;/span&gt;" style="rounded=0;whiteSpace=wrap;html=1;" parent="1" vertex="1"><mxGeometry x="217.5" y="240" width="120" height="60" as="geometry"/></mxCell><mxCell id="20" value="" style="rounded=0;whiteSpace=wrap;html=1;fillColor=none;" parent="1" vertex="1"><mxGeometry x="222.5" y="245" width="110" height="50" as="geometry"/></mxCell><mxCell id="21" value="Has" style="rhombus;whiteSpace=wrap;html=1;fontSize=14;" parent="1" vertex="1"><mxGeometry x="-212.5" y="245" width="50" height="50" as="geometry"/></mxCell><mxCell id="22" value="" style="rhombus;whiteSpace=wrap;html=1;fontSize=14;fillColor=none;" parent="1" vertex="1"><mxGeometry x="-207.5" y="250" width="40" height="40" as="geometry"/></mxCell><mxCell id="23" value="1" style="text;html=1;strokeColor=none;fillColor=none;align=center;verticalAlign=middle;whiteSpace=wrap;rounded=0;fontSize=14;" parent="1" vertex="1"><mxGeometry x="-227.5" y="245" width="20" height="30" as="geometry"/></mxCell><mxCell id="24" value="1" style="text;html=1;strokeColor=none;fillColor=none;align=center;verticalAlign=middle;whiteSpace=wrap;rounded=0;fontSize=14;" parent="1" vertex="1"><mxGeometry x="-167.5" y="245" width="20" height="30" as="geometry"/></mxCell><mxCell id="25" value="" style="endArrow=none;html=1;rounded=0;fontSize=14;entryX=0;entryY=0.5;entryDx=0;entryDy=0;exitX=1;exitY=0.5;exitDx=0;exitDy=0;" parent="1" source="45" target="21" edge="1"><mxGeometry width="50" height="50" relative="1" as="geometry"><mxPoint x="-210" y="320" as="sourcePoint"/><mxPoint x="-177.5" y="350" as="targetPoint"/></mxGeometry></mxCell><mxCell id="27" value="" style="endArrow=none;html=1;rounded=0;fontSize=14;exitX=1;exitY=0.5;exitDx=0;exitDy=0;entryX=0;entryY=0.5;entryDx=0;entryDy=0;" parent="1" source="21" target="T7bIl6d8-GQxwLn4p8uf-17" edge="1"><mxGeometry width="50" height="50" relative="1" as="geometry"><mxPoint x="-237.5" y="280" as="sourcePoint"/><mxPoint x="-172.5" y="280" as="targetPoint"/></mxGeometry></mxCell><mxCell id="28" value="&lt;span style=&quot;font-size: 14px&quot;&gt;gridSize&lt;/span&gt;" style="ellipse;whiteSpace=wrap;html=1;fontSize=18;" vertex="1" parent="1"><mxGeometry x="147.5" y="180" width="70" height="30" as="geometry"/></mxCell><mxCell id="29" value="&lt;span style=&quot;font-size: 14px&quot;&gt;shotsPerRound&lt;/span&gt;" style="ellipse;whiteSpace=wrap;html=1;fontSize=18;" vertex="1" parent="1"><mxGeometry x="317.5" y="130" width="130" height="30" as="geometry"/></mxCell><mxCell id="30" value="&lt;span style=&quot;font-size: 14px&quot;&gt;maxTimeForLayoutPhase&lt;/span&gt;" style="ellipse;whiteSpace=wrap;html=1;fontSize=18;" vertex="1" parent="1"><mxGeometry x="387.5" y="190" width="195" height="30" as="geometry"/></mxCell><mxCell id="31" value="&lt;span style=&quot;font-size: 14px&quot;&gt;maxTimePerShot&lt;/span&gt;" style="ellipse;whiteSpace=wrap;html=1;fontSize=18;" vertex="1" parent="1"><mxGeometry x="142.5" y="130" width="152.5" height="30" as="geometry"/></mxCell><mxCell id="32" value="" style="endArrow=none;html=1;rounded=0;fontSize=14;" edge="1" parent="1" source="20" target="31"><mxGeometry width="50" height="50" relative="1" as="geometry"><mxPoint x="459.4852941176471" y="470" as="sourcePoint"/><mxPoint x="391.05707476604084" y="423.46881084090785" as="targetPoint"/></mxGeometry></mxCell><mxCell id="33" value="" style="endArrow=none;html=1;rounded=0;fontSize=14;" edge="1" parent="1" source="20" target="30"><mxGeometry width="50" height="50" relative="1" as="geometry"><mxPoint x="501.25" y="284.80386415632506" as="sourcePoint"/><mxPoint x="416.4584311727938" y="299.91813729057253" as="targetPoint"/></mxGeometry></mxCell><mxCell id="34" value="" style="endArrow=none;html=1;rounded=0;fontSize=14;" edge="1" parent="1" source="20" target="28"><mxGeometry width="50" height="50" relative="1" as="geometry"><mxPoint x="501.25" y="284.80386415632506" as="sourcePoint"/><mxPoint x="416.4584311727938" y="299.91813729057253" as="targetPoint"/></mxGeometry></mxCell><mxCell id="35" value="" style="endArrow=none;html=1;rounded=0;fontSize=14;" edge="1" parent="1" source="20" target="29"><mxGeometry width="50" height="50" relative="1" as="geometry"><mxPoint x="522.9166666666667" y="250" as="sourcePoint"/><mxPoint x="433.6148628424892" y="183.02364713186694" as="targetPoint"/></mxGeometry></mxCell><mxCell id="36" value="&lt;span style=&quot;font-size: 14px;&quot;&gt;winner&lt;/span&gt;" style="ellipse;whiteSpace=wrap;html=1;fontSize=18;" vertex="1" parent="1"><mxGeometry x="-550" y="255" width="80" height="30" as="geometry"/></mxCell><mxCell id="37" value="" style="endArrow=none;html=1;rounded=0;fontSize=14;" edge="1" parent="1" source="45" target="36"><mxGeometry width="50" height="50" relative="1" as="geometry"><mxPoint x="-711.25" y="190" as="sourcePoint"/><mxPoint x="-711.25" y="130" as="targetPoint"/></mxGeometry></mxCell><mxCell id="38" value="&lt;span style=&quot;font-size: 14px&quot;&gt;turn&lt;/span&gt;" style="ellipse;whiteSpace=wrap;html=1;fontSize=18;" vertex="1" parent="1"><mxGeometry x="-290" y="160" width="62.5" height="30" as="geometry"/></mxCell><mxCell id="39" value="" style="endArrow=none;html=1;rounded=0;fontSize=14;" edge="1" parent="1" source="45" target="38"><mxGeometry width="50" height="50" relative="1" as="geometry"><mxPoint x="-651.25" y="220" as="sourcePoint"/><mxPoint x="-586.25" y="220" as="targetPoint"/></mxGeometry></mxCell><mxCell id="40" value="&lt;span style=&quot;font-size: 14px&quot;&gt;round&lt;/span&gt;" style="ellipse;whiteSpace=wrap;html=1;fontSize=18;" vertex="1" parent="1"><mxGeometry x="-520" y="160" width="62.5" height="30" as="geometry"/></mxCell><mxCell id="41" value="" style="endArrow=none;html=1;rounded=0;fontSize=14;" edge="1" parent="1" source="45" target="40"><mxGeometry width="50" height="50" relative="1" as="geometry"><mxPoint x="-711.25" y="190" as="sourcePoint"/><mxPoint x="-711.25" y="130" as="targetPoint"/></mxGeometry></mxCell><mxCell id="42" value="&lt;span style=&quot;font-size: 14px&quot;&gt;phase&lt;/span&gt;" style="ellipse;whiteSpace=wrap;html=1;fontSize=18;" vertex="1" parent="1"><mxGeometry x="-398.75" y="125" width="62.5" height="30" as="geometry"/></mxCell><mxCell id="43" value="" style="endArrow=none;html=1;rounded=0;fontSize=14;" edge="1" parent="1" source="45" target="42"><mxGeometry width="50" height="50" relative="1" as="geometry"><mxPoint x="-771.25" y="219.9999999999999" as="sourcePoint"/><mxPoint x="-813.7500000000034" y="219.9999999999999" as="targetPoint"/></mxGeometry></mxCell><mxCell id="44" value="&lt;span style=&quot;font-size: 18px&quot;&gt;GameState&lt;/span&gt;" style="rounded=0;whiteSpace=wrap;html=1;" vertex="1" parent="1"><mxGeometry x="-427.5" y="240" width="120" height="60" as="geometry"/></mxCell><mxCell id="45" value="" style="rounded=0;whiteSpace=wrap;html=1;fillColor=none;" vertex="1" parent="1"><mxGeometry x="-422.5" y="245" width="110" height="50" as="geometry"/></mxCell><mxCell id="46" value="Has" style="rhombus;whiteSpace=wrap;html=1;fontSize=14;" vertex="1" parent="1"><mxGeometry x="520" y="465" width="50" height="50" as="geometry"/></mxCell><mxCell id="48" value="" style="endArrow=none;html=1;rounded=0;fontSize=14;exitX=0.5;exitY=0;exitDx=0;exitDy=0;entryX=1;entryY=0.5;entryDx=0;entryDy=0;edgeStyle=orthogonalEdgeStyle;" edge="1" parent="1" source="46" target="19"><mxGeometry width="50" height="50" relative="1" as="geometry"><mxPoint x="222.49999999999977" y="690" as="sourcePoint"/><mxPoint x="340" y="270" as="targetPoint"/></mxGeometry></mxCell><mxCell id="49" value="" style="endArrow=none;html=1;rounded=0;fontSize=14;exitX=0.5;exitY=1;exitDx=0;exitDy=0;edgeStyle=orthogonalEdgeStyle;entryX=1;entryY=0.5;entryDx=0;entryDy=0;" edge="1" parent="1" source="46" target="T7bIl6d8-GQxwLn4p8uf-1"><mxGeometry width="50" height="50" relative="1" as="geometry"><mxPoint x="555" y="475" as="sourcePoint"/><mxPoint x="390" y="630" as="targetPoint"/></mxGeometry></mxCell><mxCell id="50" value="N" style="text;html=1;strokeColor=none;fillColor=none;align=center;verticalAlign=middle;whiteSpace=wrap;rounded=0;fontSize=14;" vertex="1" parent="1"><mxGeometry x="547" y="447" width="20" height="30" as="geometry"/></mxCell><mxCell id="51" value="N" style="text;html=1;strokeColor=none;fillColor=none;align=center;verticalAlign=middle;whiteSpace=wrap;rounded=0;fontSize=14;" vertex="1" parent="1"><mxGeometry x="550" y="505" width="20" height="30" as="geometry"/></mxCell></root></mxGraphModel></diagram></mxfile>